<svg xmlns="http://www.w3.org/2000/svg" viewBox="0 0 32 32">
	<path fill="#E3B740" d="m17.59,25.72c.52.52.52,1.36,0,1.88l-1.66,1.67c-3.65,3.64-9.56,3.64-13.2,0-3.64-3.65-3.64-9.56,0-13.2l4.02-4.02c3.49-3.49,9.1-3.66,12.8-.38.55.49.6,1.33.11,1.89-.49.55-1.33.6-1.89.11-2.64-2.34-6.64-2.22-9.14.27l-4.02,4.01c-2.6,2.6-2.6,6.82,0,9.43,2.6,2.6,6.82,2.6,9.43,0l1.66-1.66c.52-.52,1.36-.52,1.89,0h0ZM29.27,2.73c-3.65-3.64-9.55-3.64-13.2,0l-1.66,1.66c-.52.52-.52,1.36,0,1.88.52.52,1.36.52,1.89,0l1.66-1.66c2.6-2.6,6.82-2.6,9.43,0s2.6,6.82,0,9.43l-4.02,4.02c-2.5,2.49-6.5,2.61-9.14.27-.55-.49-1.4-.44-1.89.11-.49.55-.44,1.4.11,1.89h0c3.69,3.28,9.3,3.12,12.8-.38l4.02-4.02c3.64-3.65,3.64-9.55,0-13.2h0Z"/>
</svg>
