<svg xmlns="http://www.w3.org/2000/svg" viewBox="0 0 32 32">
	<path fill="#E3B740" d="m14.93,0c-.77.01-1.54.1-2.3.26l-.59.19c-1.17.39-2.14.98-2.71,1.74l-.39.58-2.63,4.56c.55-.5,1.26-.9,2.12-1.15h0l.79-.2h0c.75-.17,1.52-.26,2.3-.27,3.77-.07,7.79,1.48,10.88,3.05,2.99,1.52,5.02,3,5.15,3.09l3.45-5.74c-.11-.08-2.14-1.56-5.16-3.08C22.75,1.47,18.71-.07,14.93,0h0Zm-3.4,5.91c-.76.01-1.51.1-2.25.26l-.78.2c-1.65.49-2.71,1.5-3.14,2.72-.43,1.22-.24,2.67.63,4.02.43.56.96,1.05,1.57,1.48l8.37-2.7h0c2.65-.78,5.52-.3,7.77,1.31l3.67-1.24c-.22-.16-2.15-1.55-5.05-3.02-3.07-1.56-7.08-3.09-10.79-3.03Zm7.02,5.81c-.87,0-1.73.12-2.56.37l-12.19,3.93-3.8,6.65,11.98-3.86c3.5-1.05,7.29.14,9.57,2.99h0c.9,1.17,1.15,2.46.85,3.63l3.32-5.98c.77-1.34.58-2.87-.39-4.43-1.65-2.06-4.15-3.27-6.79-3.28Zm-3.92,6.9c-.88,0-1.75.11-2.59.37L.01,22.87c.23.17,2.61,1.93,6.05,3.58,3.61,1.72,8.23,3.19,12.23,2.21l.59-.2h0c1.65-.49,2.76-1.5,3.21-2.7.46-1.2.27-2.59-.7-3.85-1.65-2.06-4.13-3.27-6.76-3.29Z"/>
</svg>
