<svg xmlns="http://www.w3.org/2000/svg" viewBox="0 0 32 32">
	<path fill="#E3B740" d="m10.77,27.29c-2.33.6-4.78-.31-6.15-2.28-.83-1.16-1.16-2.61-.91-4.01.04-.23.1-.45.17-.67l.14-.41.37.27c.85.63,1.81,1.1,2.82,1.41l.27.08-.03.27c-.03.38.07.76.29,1.07.41.6,1.15.87,1.85.69.16-.04.31-.11.44-.19l7.22-4.6c.36-.23.6-.59.68-1,.08-.42-.02-.86-.27-1.21-.41-.6-1.15-.87-1.85-.69-.16.04-.31.11-.44.19l-2.76,1.76c-.45.29-.95.51-1.47.64-2.33.6-4.78-.31-6.15-2.28-.83-1.16-1.16-2.61-.91-4.01.25-1.38,1.06-2.59,2.25-3.34l7.22-4.6c.45-.29.95-.51,1.47-.64,2.33-.6,4.78.31,6.15,2.28.83,1.16,1.16,2.61.91,4.01-.04.23-.1.45-.17.67l-.14.41-.37-.27c-.85-.63-1.81-1.11-2.82-1.41l-.27-.08.03-.27c.03-.38-.07-.76-.29-1.07-.41-.59-1.15-.87-1.85-.69-.16.04-.31.11-.44.19l-7.22,4.6c-.36.22-.6.59-.68,1-.08.42.02.86.27,1.21.41.6,1.15.87,1.85.69.16-.04.31-.11.44-.2l2.75-1.76c.45-.29.95-.5,1.47-.64,2.33-.6,4.78.31,6.15,2.28.83,1.16,1.16,2.61.91,4.01-.25,1.38-1.06,2.59-2.25,3.34l-7.22,4.6c-.45.29-.95.51-1.47.64M24.15,4.1C21.27-.02,15.59-1.24,11.48,1.38l-7.22,4.6c-1.97,1.24-3.33,3.25-3.74,5.55-.34,1.91-.04,3.88.86,5.6-.62.94-1.04,1.99-1.24,3.09-.42,2.34.13,4.74,1.51,6.67,2.88,4.12,8.56,5.34,12.67,2.72l7.22-4.6c1.97-1.24,3.33-3.25,3.74-5.55.34-1.91.04-3.88-.86-5.6.62-.94,1.04-1.99,1.24-3.09.42-2.34-.13-4.74-1.51-6.68Z"/>
</svg>
