<svg xmlns="http://www.w3.org/2000/svg" viewBox="0 0 32 32">
	<path fill="#E3B740" d="m18.38,13.81c0,1.59-1.29,2.89-2.89,2.89-1.6,0-2.89-1.29-2.89-2.89h0c0-1.59,1.29-2.89,2.89-2.89,1.6,0,2.89,1.29,2.89,2.89h0ZM21.8,0C20.06,0,17.79,1.24,15.49,3.39,13.19,1.25,10.91.03,9.17.03c-.53,0-1.01.12-1.43.36-1.78,1.02-2.17,4.22-1.26,8.22-3.93,1.21-6.49,3.16-6.49,5.2s2.57,4,6.51,5.21c-.91,4.02-.5,7.22,1.28,8.24.41.24.89.36,1.42.36,1.74,0,4.01-1.24,6.31-3.39,2.3,2.14,4.58,3.36,6.31,3.36.53,0,1.01-.12,1.43-.36,1.77-1.02,2.17-4.21,1.26-8.22,3.92-1.2,6.48-3.15,6.48-5.2s-2.57-4-6.51-5.21c.91-4.02.5-7.22-1.28-8.24-.41-.24-.89-.36-1.41-.36h0Zm0,1.41h0c.29,0,.52.06.72.17.86.49,1.23,2.37.94,4.78-.07.59-.18,1.22-.32,1.86-1.24-.3-2.59-.54-4.01-.69-.85-1.17-1.74-2.23-2.63-3.16,2.06-1.91,3.99-2.96,5.3-2.96h0Zm-12.62.02c1.31,0,3.25,1.04,5.31,2.95-.89.93-1.77,1.99-2.61,3.15-1.43.15-2.78.38-4.02.69-.14-.63-.25-1.25-.33-1.83-.3-2.41.07-4.29.92-4.79.25-.12.52-.16.73-.17h0Zm6.31,3.94c.59.6,1.18,1.28,1.76,2.02-.57-.03-1.15-.04-1.74-.04s-1.18.01-1.76.04c.57-.74,1.16-1.42,1.74-2.02h0Zm.02,3.39c.96,0,1.91.04,2.84.12.52.75,1.04,1.55,1.53,2.4.48.83.92,1.67,1.31,2.51-.4.85-.83,1.69-1.31,2.52-.49.85-1,1.66-1.52,2.42-.94.08-1.89.13-2.85.13s-1.91-.05-2.84-.12c-.52-.75-1.04-1.56-1.53-2.4-.48-.83-.92-1.67-1.31-2.51.39-.85.83-1.7,1.31-2.52.49-.85,1-1.66,1.52-2.41.94-.08,1.89-.13,2.85-.13h0Zm-4.7.33c-.31.49-.62.99-.91,1.5-.29.5-.56,1.01-.82,1.52-.34-.85-.63-1.69-.87-2.51.83-.19,1.7-.37,2.6-.5h0Zm9.38,0c.9.13,1.76.3,2.59.5-.23.82-.52,1.66-.85,2.5-.26-.5-.53-1.01-.83-1.52-.29-.51-.6-1-.91-1.48h0Zm3.96.87c.63.19,1.22.41,1.78.64,2.24.96,3.68,2.21,3.68,3.2,0,.99-1.45,2.25-3.69,3.2-.54.23-1.14.44-1.75.64-.36-1.24-.83-2.53-1.42-3.85.58-1.31,1.05-2.6,1.4-3.83h0Zm-17.3,0c.36,1.24.83,2.53,1.42,3.85-.58,1.31-1.05,2.6-1.4,3.83-.63-.19-1.22-.41-1.77-.65-2.24-.95-3.68-2.2-3.68-3.2s1.45-2.25,3.68-3.2c.54-.23,1.14-.44,1.75-.64Zm15.08,5.53c.34.85.63,1.69.87,2.52-.83.2-1.7.37-2.6.5.31-.48.62-.98.91-1.5.29-.5.56-1.02.82-1.52h0Zm-12.85.03c.26.51.53,1.01.83,1.52.3.5.6,1,.91,1.48-.9-.13-1.76-.3-2.59-.5.23-.81.52-1.66.85-2.5h0Zm14.07,3.86c.14.64.26,1.25.33,1.84.3,2.41-.07,4.29-.92,4.79-.19.12-.44.17-.73.17-1.31,0-3.25-1.04-5.31-2.95.89-.93,1.77-1.98,2.61-3.15,1.43-.15,2.78-.39,4.02-.7h0Zm-15.28.01c1.24.3,2.59.54,4.01.69.85,1.17,1.74,2.23,2.63,3.16-2.06,1.92-3.99,2.96-5.31,2.96-.28,0-.52-.06-.71-.17-.86-.49-1.23-2.37-.94-4.78.07-.59.18-1.22.32-1.86h0Zm5.89.83c.57.03,1.15.04,1.74.04s1.18-.01,1.76-.04c-.57.74-1.16,1.41-1.74,2.02-.59-.61-1.18-1.28-1.76-2.02Z"/>
</svg>
