<svg id="Layer_1" data-name="Layer 1" xmlns="http://www.w3.org/2000/svg" viewBox="0 0 32 32">
	<path fill="#E3B740" d="m13,16c0,.55-.45,1-1,1h-1v6c0,.55-.45,1-1,1s-1-.45-1-1v-6h-1c-.55,0-1-.45-1-1s.45-1,1-1h4c.55,0,1,.45,1,1Zm-8-1c-.55,0-1,.45-1,1v2.5h-2v-2.5c0-.55-.45-1-1-1s-1,.45-1,1v7c0,.55.45,1,1,1s1-.45,1-1v-2.5h2v2.5c0,.55.45,1,1,1s1-.45,1-1v-7c0-.55-.45-1-1-1Zm22,7h-1.5v-6c0-.55-.45-1-1-1s-1,.45-1,1v7c0,.55.45,1,1,1h2.5c.55,0,1-.45,1-1s-.45-1-1-1Zm-5.73-6.96c-.43-.12-.89.06-1.12.45l-2.14,3.57-2.14-3.57c-.28-.47-.9-.63-1.37-.34-.3.18-.49.51-.49.86v7c0,.55.45,1,1,1s1-.45,1-1v-3.39l1.14,1.91c.28.47.9.63,1.37.34.14-.08.26-.2.34-.34l1.14-1.91v3.39c0,.55.45,1,1,1s1-.45,1-1v-7c0-.45-.3-.84-.73-.96Zm1.73-3.04c-.55,0-1-.45-1-1v-2h-6c-.55,0-1-.45-1-1V2H4v9c0,.55-.45,1-1,1s-1-.45-1-1V2C2,.9,2.9,0,4,0h12c.27,0,.52.11.71.29l7,7c.19.19.29.44.29.71v3c0,.55-.45,1-1,1Zm-2.41-5l-3.59-3.59v3.59h3.59Z"/>
</svg>
