<svg xmlns="http://www.w3.org/2000/svg" viewBox="0 0 32 32">
	<path fill="#E3B740" d="m7.7,26.04c-1.53-1.38-1.98-4.28-1.34-6.39,1.11,1.33,2.64,1.75,4.23,1.98,2.45.37,4.86.23,7.13-.88.26-.13.5-.3.79-.46.21.61.27,1.23.2,1.86-.18,1.53-.95,2.71-2.18,3.61-.49.36-1.01.68-1.52,1.02-1.56,1.04-1.98,2.26-1.39,4.03l.06.19c-.74-.32-1.38-.85-1.82-1.53-.46-.7-.7-1.51-.7-2.34,0-.41,0-.83-.06-1.24-.14-.99-.61-1.44-1.5-1.46-.91-.03-1.64.53-1.83,1.41-.02.07-.04.13-.06.21h0ZM0,20.3s4.18-2.03,8.38-2.03l3.17-9.77c.12-.47.46-.79.86-.79s.74.32.86.79l3.16,9.77c4.97,0,8.38,2.03,8.38,2.03L17.68.94c-.2-.57-.55-.94-1.01-.94h-8.53c-.46,0-.79.37-1.01.94C7.12.94,0,20.3,0,20.3Z"/>
</svg>
