<svg xmlns="http://www.w3.org/2000/svg" viewBox="0 0 32 32">
	<path fill="#E3B740" d="m14.19,32c-.43,0-.85-.11-1.23-.33l-3.91-2.32c-.58-.33-.3-.44-.11-.51.78-.27.94-.33,1.77-.81.09-.05.2-.03.29.02l3.01,1.79c.11.06.26.06.36,0l11.73-6.77c.11-.06.18-.19.18-.32v-13.53c0-.13-.07-.26-.18-.32L14.37,2.14c-.11-.06-.25-.06-.36,0L2.29,8.91c-.11.07-.19.19-.19.32v13.53c0,.13.07.25.19.31l3.21,1.86c1.74.87,2.81-.15,2.81-1.19v-13.36c0-.19.15-.34.34-.34h1.49c.19,0,.34.15.34.34v13.36c0,2.33-1.27,3.66-3.47,3.66-.68,0-1.21,0-2.7-.73l-3.08-1.77c-.76-.44-1.23-1.26-1.23-2.14v-13.53c0-.88.47-1.7,1.23-2.14L12.96.31c.74-.42,1.73-.42,2.46,0l11.73,6.78c.76.44,1.23,1.26,1.23,2.14v13.53c0,.88-.47,1.7-1.23,2.14l-11.73,6.77c-.37.22-.8.33-1.23.33Zm9.47-13.34c0-2.53-1.71-3.21-5.32-3.68-3.64-.48-4.01-.73-4.01-1.58,0-.7.31-1.64,3.01-1.64,2.41,0,3.3.52,3.66,2.14.03.15.17.27.33.27h1.52c.09,0,.18-.04.25-.11.06-.07.1-.16.09-.26-.24-2.8-2.09-4.1-5.85-4.1-3.34,0-5.34,1.41-5.34,3.78,0,2.57,1.98,3.28,5.19,3.59,3.84.38,4.14.94,4.14,1.69,0,1.31-1.05,1.87-3.52,1.87-3.1,0-3.79-.78-4.01-2.32-.03-.17-.17-.29-.34-.29h-1.52c-.19,0-.34.15-.34.34,0,1.98,1.07,4.33,6.21,4.33,3.72,0,5.85-1.46,5.85-4.02Z"/>
</svg>
