<svg xmlns="http://www.w3.org/2000/svg" viewBox="0 0 32 32">
	<path fill="#E3B740" d="m2,19.5c0,1.38.9,2.5,2,2.5.49-.01.95-.22,1.28-.58.37-.41,1-.45,1.41-.08.41.37.45,1,.08,1.41-.01.02-.03.03-.05.05-.7.76-1.69,1.19-2.72,1.2-2.21,0-4-2.02-4-4.5s1.79-4.5,4-4.5c1.03,0,2.02.44,2.72,1.2.39.39.4,1.02.02,1.41-.39.39-1.02.4-1.41.02-.02-.02-.03-.03-.05-.05-.33-.36-.79-.57-1.28-.58-1.1,0-2,1.12-2,2.5Zm9.95-1.09c-.5-.15-1.02-.29-1.31-.48-.16-.1-.15-.12-.14-.24,0-.18.1-.36.25-.46.57-.39,1.92-.22,2.48-.07.53.14,1.08-.18,1.22-.71.14-.53-.18-1.08-.71-1.22h0c-.26-.07-2.62-.65-4.1.34-.63.42-1.05,1.11-1.12,1.87-.25,1.99,1.7,2.55,2.88,2.89,1.51.44,1.64.61,1.6.95-.04.3-.16.42-.27.49-.58.38-1.9.19-2.44.05-.53-.14-1.08.18-1.22.71-.14.52.17,1.06.69,1.22.62.16,1.26.25,1.9.25.73,0,1.54-.12,2.19-.56.65-.43,1.07-1.13,1.15-1.9.28-2.16-1.78-2.76-3.02-3.12Zm8,0c-.5-.15-1.02-.29-1.31-.48-.16-.1-.15-.12-.14-.24,0-.18.1-.36.25-.46.58-.39,1.92-.22,2.48-.07.53.14,1.08-.18,1.22-.71.14-.53-.18-1.08-.71-1.22h0c-.26-.07-2.62-.65-4.1.34-.63.43-1.04,1.11-1.12,1.87-.25,1.99,1.71,2.55,2.88,2.89,1.51.44,1.64.61,1.6.95-.04.3-.16.42-.27.49-.58.38-1.9.19-2.44.05-.53-.15-1.09.16-1.23.7s.16,1.09.7,1.23c.62.16,1.26.25,1.9.25.73,0,1.54-.12,2.19-.56.65-.43,1.07-1.13,1.15-1.9.28-2.16-1.79-2.77-3.03-3.12h0ZM1,11V2C1,.9,1.9,0,3,0h12c.27,0,.52.11.71.29l7,7c.19.19.29.44.29.71v3c0,.55-.45,1-1,1s-1-.45-1-1v-2h-6c-.55,0-1-.45-1-1V2H3v9c0,.55-.45,1-1,1s-1-.45-1-1Zm15-4h3.58l-3.58-3.59v3.59Z"/>
</svg>
