<svg xmlns="http://www.w3.org/2000/svg" viewBox="0 0 32 32">
	<path fill="#E3B740" d="m23.21,7.29L16.21.29C16.02.11,15.77,0,15.5,0H3.5C2.4,0,1.5.9,1.5,2v9c0,.55.45,1,1,1s1-.45,1-1V2h11v6c0,.55.45,1,1,1h6v15h-3c-.55,0-1,.45-1,1s.45,1,1,1h3c1.1,0,2-.9,2-2V8c0-.27-.11-.52-.29-.71Zm-6.71-3.88l3.59,3.59h-3.59v-3.59Zm-1.52,18.12c-.08.77-.5,1.47-1.15,1.9-.65.43-1.45.56-2.19.56-.64,0-1.28-.09-1.9-.25-.53-.15-.84-.7-.69-1.23s.7-.84,1.23-.69c.55.15,1.88.34,2.44-.05.11-.07.23-.19.27-.49.04-.33-.09-.51-1.6-.95-1.17-.34-3.12-.9-2.88-2.89.08-.76.49-1.44,1.12-1.87,1.48-1,3.84-.41,4.1-.34.53.14.85.69.71,1.22-.14.53-.69.85-1.22.71h0c-.56-.15-1.9-.32-2.48.07-.15.1-.25.27-.25.46-.02.11-.02.14.14.24.29.19.81.33,1.31.48,1.23.35,3.3.96,3.02,3.12Zm-8.48-5.54v4.75c0,1.79-1.46,3.25-3.25,3.25s-3.25-1.46-3.25-3.25c0-.55.45-1,1-1s1,.45,1,1c0,.69.56,1.25,1.25,1.25s1.25-.56,1.25-1.25v-4.75c0-.55.45-1,1-1s1,.45,1,1Z"/>
</svg>
