<svg xmlns="http://www.w3.org/2000/svg" viewBox="0 0 32 32">
	<path fill="#E3B740" d="m14.48,21.54c-.08.77-.5,1.47-1.15,1.9-.65.43-1.45.56-2.19.56-.64,0-1.28-.09-1.9-.25-.53-.15-.84-.7-.69-1.23s.7-.84,1.23-.69c.55.15,1.88.34,2.44-.05.11-.07.23-.19.27-.49.04-.33-.09-.51-1.6-.95-1.17-.34-3.12-.9-2.88-2.89.08-.76.49-1.44,1.12-1.87,1.48-1,3.84-.41,4.1-.34.53.14.85.69.71,1.22-.14.53-.69.85-1.22.71h0c-.56-.15-1.9-.32-2.48.07-.15.1-.25.27-.25.46-.02.11-.02.14.14.24.29.19.81.33,1.31.48,1.23.35,3.3.96,3.02,3.12Zm8.52-13.54v16c0,1.1-.9,2-2,2h-3c-.55,0-1-.45-1-1s.45-1,1-1h3v-15h-6c-.55,0-1-.45-1-1V2H3v9c0,.55-.45,1-1,1s-1-.45-1-1V2C1,.9,1.9,0,3,0h12c.27,0,.52.11.71.29l7,7c.19.19.29.44.29.71Zm-7-1h3.59l-3.59-3.59v3.59ZM6,15H1c-.55,0-1,.45-1,1s.45,1,1,1h1.5v6c0,.55.45,1,1,1s1-.45,1-1v-6h1.5c.55,0,1-.45,1-1s-.45-1-1-1Z"/>
</svg>
